<svg width="32" height="32" viewBox="0 0 32 32" fill="none" xmlns="http://www.w3.org/2000/svg">
<path d="M31 15C31.5523 15 32 15.4477 32 16C32 16.5523 31.5523 17 31 17V15ZM0.292893 16.7071C-0.0976311 16.3166 -0.0976311 15.6834 0.292893 15.2929L6.65685 8.92893C7.04738 8.53841 7.68054 8.53841 8.07107 8.92893C8.46159 9.31946 8.46159 9.95262 8.07107 10.3431L2.41421 16L8.07107 21.6569C8.46159 22.0474 8.46159 22.6805 8.07107 23.0711C7.68054 23.4616 7.04738 23.4616 6.65685 23.0711L0.292893 16.7071ZM31 17H1V15H31V17Z" fill="#343332"/>
</svg>
