<svg width="17" height="16" viewBox="0 0 17 16" fill="none" xmlns="http://www.w3.org/2000/svg">
<path d="M8.02296 0.34196C8.17304 -0.113987 8.82694 -0.113987 8.97703 0.34196L10.6398 5.39057C10.7069 5.59448 10.8995 5.73253 11.1168 5.73253H16.4974C16.9834 5.73253 17.1854 6.346 16.7922 6.62778L12.4393 9.74798C12.2635 9.87398 12.1898 10.0974 12.2571 10.3013L13.9197 15.3499C14.0699 15.8059 13.541 16.185 13.1478 15.9032L8.79484 12.783C8.61897 12.657 8.38101 12.657 8.20515 12.783L3.85216 15.9032C3.45903 16.185 2.9301 15.8059 3.08026 15.3499L4.74295 10.3013C4.81011 10.0974 4.73654 9.87398 4.56073 9.74798L0.207728 6.62778C-0.185386 6.346 0.0166534 5.73253 0.502575 5.73253H5.88317C6.10048 5.73253 6.29308 5.59448 6.36024 5.39057L8.02296 0.34196Z" fill="#43A631"/>
</svg>
